<svg width="155" height="43" viewBox="0 0 155 43" fill="none" xmlns="http://www.w3.org/2000/svg">
<rect x="112" width="43" height="43" rx="10" fill="black"/>
<path d="M123.666 31.234C122.834 31.234 122.132 30.9567 121.56 30.402C120.988 29.8473 120.702 29.1453 120.702 28.296C120.702 27.4293 120.979 26.7273 121.534 26.19C122.106 25.6527 122.817 25.384 123.666 25.384C124.533 25.384 125.243 25.6527 125.798 26.19C126.353 26.7273 126.63 27.4293 126.63 28.296C126.63 29.1453 126.344 29.8473 125.772 30.402C125.217 30.9567 124.515 31.234 123.666 31.234ZM128.949 16.908H133.889V31H128.949V16.908ZM131.419 15.348C130.518 15.348 129.79 15.0967 129.235 14.594C128.681 14.0913 128.403 13.4673 128.403 12.722C128.403 11.9767 128.681 11.3527 129.235 10.85C129.79 10.3473 130.518 10.096 131.419 10.096C132.321 10.096 133.049 10.3387 133.603 10.824C134.158 11.292 134.435 11.8987 134.435 12.644C134.435 13.424 134.158 14.074 133.603 14.594C133.049 15.0967 132.321 15.348 131.419 15.348ZM146.824 30.428C146.408 30.688 145.896 30.8873 145.29 31.026C144.7 31.1647 144.068 31.234 143.392 31.234C141.554 31.234 140.142 30.7833 139.154 29.882C138.166 28.9807 137.672 27.6373 137.672 25.852V21.12H135.618V17.428H137.672V13.762H142.612V17.428H145.836V21.12H142.612V25.8C142.612 26.3027 142.742 26.7013 143.002 26.996C143.279 27.2733 143.643 27.412 144.094 27.412C144.666 27.412 145.168 27.2647 145.602 26.97L146.824 30.428Z" fill="white"/>
<path d="M10.894 31.364C8.98733 31.364 7.27133 30.9653 5.746 30.168C4.238 29.3533 3.05067 28.2267 2.184 26.788C1.31733 25.3493 0.884 23.72 0.884 21.9C0.884 20.08 1.31733 18.4507 2.184 17.012C3.05067 15.5733 4.238 14.4553 5.746 13.658C7.27133 12.8433 8.98733 12.436 10.894 12.436C12.558 12.436 14.0573 12.7307 15.392 13.32C16.7267 13.9093 17.836 14.7587 18.72 15.868L15.444 18.832C14.2653 17.4107 12.8353 16.7 11.154 16.7C10.166 16.7 9.282 16.9167 8.502 17.35C7.73933 17.7833 7.14133 18.3987 6.708 19.196C6.292 19.976 6.084 20.8773 6.084 21.9C6.084 22.9227 6.292 23.8327 6.708 24.63C7.14133 25.41 7.73933 26.0167 8.502 26.45C9.282 26.8833 10.166 27.1 11.154 27.1C12.8353 27.1 14.2653 26.3893 15.444 24.968L18.72 27.932C17.836 29.0413 16.7267 29.8907 15.392 30.48C14.0573 31.0693 12.558 31.364 10.894 31.364ZM29.9593 16.674C31.71 16.674 33.114 17.194 34.1713 18.234C35.246 19.274 35.7833 20.8427 35.7833 22.94V31H30.8433V23.746C30.8433 21.822 30.072 20.86 28.5293 20.86C27.68 20.86 26.9953 21.1373 26.4753 21.692C25.9726 22.2467 25.7213 23.0787 25.7213 24.188V31H20.7813V11.708H25.7213V18.208C26.2586 17.7053 26.8913 17.324 27.6193 17.064C28.3473 16.804 29.1273 16.674 29.9593 16.674ZM44.8908 16.674C47.2308 16.674 49.0162 17.2113 50.2468 18.286C51.4775 19.3433 52.0928 20.9727 52.0928 23.174V31H47.4908V29.18C46.7802 30.5493 45.3935 31.234 43.3308 31.234C42.2388 31.234 41.2942 31.0433 40.4968 30.662C39.6995 30.2807 39.0928 29.7693 38.6768 29.128C38.2782 28.4693 38.0788 27.724 38.0788 26.892C38.0788 25.5573 38.5902 24.526 39.6128 23.798C40.6355 23.0527 42.2128 22.68 44.3448 22.68H47.1528C47.0662 21.1893 46.0695 20.444 44.1628 20.444C43.4868 20.444 42.8022 20.5567 42.1088 20.782C41.4155 20.99 40.8262 21.2847 40.3408 21.666L38.6768 18.312C39.4568 17.792 40.4015 17.3933 41.5108 17.116C42.6375 16.8213 43.7642 16.674 44.8908 16.674ZM44.7088 28.114C45.2808 28.114 45.7835 27.9753 46.2168 27.698C46.6502 27.4207 46.9622 27.0133 47.1528 26.476V25.254H45.0208C43.5822 25.254 42.8628 25.7307 42.8628 26.684C42.8628 27.1173 43.0275 27.464 43.3568 27.724C43.6862 27.984 44.1368 28.114 44.7088 28.114ZM64.389 16.674C66.1397 16.674 67.5437 17.194 68.601 18.234C69.6757 19.274 70.213 20.8427 70.213 22.94V31H65.273V23.746C65.273 21.822 64.5017 20.86 62.959 20.86C62.1097 20.86 61.425 21.1373 60.905 21.692C60.4023 22.2467 60.151 23.0787 60.151 24.188V31H55.211V16.908H59.917V18.442C60.4717 17.87 61.1303 17.4367 61.893 17.142C62.6557 16.83 63.4877 16.674 64.389 16.674ZM88.6756 16.908V28.426C88.6756 31.0433 87.965 33.002 86.5436 34.302C85.1223 35.6193 83.077 36.278 80.4076 36.278C79.021 36.278 77.721 36.122 76.5076 35.81C75.2943 35.498 74.263 35.0387 73.4136 34.432L75.2076 30.974C75.7796 31.442 76.499 31.806 77.3656 32.066C78.2496 32.3433 79.1163 32.482 79.9656 32.482C81.2656 32.482 82.219 32.196 82.8256 31.624C83.4323 31.052 83.7356 30.2027 83.7356 29.076V28.608C82.7823 29.7173 81.387 30.272 79.5496 30.272C78.3016 30.272 77.149 29.9947 76.0916 29.44C75.0343 28.868 74.1936 28.0707 73.5696 27.048C72.9456 26.008 72.6336 24.812 72.6336 23.46C72.6336 22.1253 72.9456 20.9467 73.5696 19.924C74.1936 18.884 75.0343 18.0867 76.0916 17.532C77.149 16.96 78.3016 16.674 79.5496 16.674C81.5603 16.674 83.0336 17.324 83.9696 18.624V16.908H88.6756ZM80.7196 26.346C81.6036 26.346 82.3316 26.0773 82.9036 25.54C83.493 25.0027 83.7876 24.3093 83.7876 23.46C83.7876 22.6107 83.5016 21.926 82.9296 21.406C82.3576 20.8687 81.621 20.6 80.7196 20.6C79.8183 20.6 79.073 20.8687 78.4836 21.406C77.9116 21.926 77.6256 22.6107 77.6256 23.46C77.6256 24.3093 77.9203 25.0027 78.5096 25.54C79.099 26.0773 79.8356 26.346 80.7196 26.346ZM106.254 23.98C106.254 24.0147 106.228 24.422 106.176 25.202H95.9317C96.1397 25.93 96.5383 26.4933 97.1277 26.892C97.7343 27.2733 98.4883 27.464 99.3897 27.464C100.066 27.464 100.646 27.3687 101.132 27.178C101.634 26.9873 102.137 26.6753 102.64 26.242L105.24 28.946C103.87 30.4713 101.868 31.234 99.2337 31.234C97.587 31.234 96.1397 30.922 94.8917 30.298C93.6437 29.674 92.673 28.8073 91.9797 27.698C91.3037 26.5887 90.9657 25.332 90.9657 23.928C90.9657 22.5413 91.295 21.302 91.9537 20.21C92.6297 19.1007 93.557 18.234 94.7357 17.61C95.9143 16.986 97.2403 16.674 98.7137 16.674C100.118 16.674 101.392 16.9687 102.536 17.558C103.68 18.13 104.581 18.9707 105.24 20.08C105.916 21.172 106.254 22.472 106.254 23.98ZM98.7397 20.184C97.977 20.184 97.3357 20.4007 96.8157 20.834C96.313 21.2673 95.9923 21.8567 95.8537 22.602H101.626C101.487 21.8567 101.158 21.2673 100.638 20.834C100.135 20.4007 99.5023 20.184 98.7397 20.184Z" fill="black"/>
</svg>
